<svg height='100px' width='100px'  fill="#d96b52" xmlns="http://www.w3.org/2000/svg" xmlns:cc="http://creativecommons.org/ns#" xmlns:dc="http://purl.org/dc/elements/1.1/" xmlns:rdf="http://www.w3.org/1999/02/22-rdf-syntax-ns#" version="1.1" viewBox="0 0 100 100" x="0px" y="0px"><path d="m16.505 2.813a1.2337 1.2337 0 0 0-1.195 1.1199s-0.1756 1.9039-0.6091 4.0613c-0.4335 2.1573-1.3061 4.5874-1.9141 5.1986-0.60795 0.61114-3.0709 1.528-5.2564 2.0007-2.1855 0.47272-4.1172 0.68427-4.1172 0.68427a1.2337 1.2337 0 0 0 0.00385 2.4537s1.8949 0.19852 4.044 0.65729 4.572 1.3524 5.1927 1.9699c0.62074 0.61749 1.5418 3.0524 2.0239 5.212 0.48206 2.1596 0.70355 4.0671 0.70355 4.0671a1.2337 1.2337 0 0 0 2.4499 0.0019s0.22672-1.9078 0.71319-4.0709c0.48647-2.1632 1.4079-4.6044 2.0296-5.2294 0.62177-0.62505 3.0221-1.529 5.1523-1.9989s4.0073-0.67849 4.0073-0.67849a1.2337 1.2337 0 0 0-0.01735-2.4537s-1.9298-0.18915-4.1134-0.63801c-2.1836-0.44883-4.6438-1.3413-5.2525-1.9468-0.60868-0.60553-1.5004-3.0458-1.9487-5.214-0.44833-2.1682-0.63608-4.0845-0.63608-4.0845a1.2337 1.2337 0 0 0-1.2606-1.1122zm0.05012 7.9144c0.43161 1.6141 0.98148 3.1768 2.0547 4.2444 1.1333 1.1273 2.8179 1.6821 4.5374 2.1164-1.6382 0.45095-3.2366 1.0181-4.3235 2.1107-1.1619 1.168-1.7453 2.9237-2.2128 4.6993-0.46474-1.7723-1.047-3.5242-2.2167-4.6877-1.1143-1.1085-2.7588-1.6696-4.439-2.1125 1.7378-0.45316 3.4421-1.0228 4.5798-2.1665 1.058-1.0635 1.5989-2.6079 2.0201-4.204zm39.664 0.52236a1.2337 1.2337 0 0 0-1.195 1.1218s-0.54834 6.0275-1.9256 12.882c-1.3773 6.8543-3.7642 14.553-6.65 17.454s-10.668 5.4193-17.604 6.9198c-6.9359 1.5005-13.052 2.1665-13.052 2.1665a1.2337 1.2337 0 0 0 0.0058 2.4537s5.9985 0.62854 12.824 2.0856c6.8254 1.457 14.496 3.9185 17.408 6.8138 2.9105 2.8953 5.4512 10.596 6.9815 17.452 1.5304 6.856 2.2282 12.89 2.2282 12.89a1.2337 1.2337 0 0 0 2.4499 0.0039s0.7152-6.0378 2.2591-12.903c1.5439-6.865 4.0915-14.583 6.9912-17.498 2.8996-2.9149 10.507-5.4118 17.275-6.9044 6.7675-1.4926 12.712-2.1511 12.712-2.1511a1.2337 1.2337 0 0 0-0.01542-2.4557s-6.1071-0.595-13.04-2.0201c-6.9327-1.4251-14.716-3.863-17.614-6.7464-2.8985-2.8833-5.3378-10.611-6.7618-17.498-1.424-6.8866-2.0162-12.953-2.0162-12.953a1.2337 1.2337 0 0 0-1.2606-1.1122zm0.05783 9.8554c0.26376 1.5926 0.43133 2.9171 0.80185 4.709 1.4548 7.0355 3.5824 14.909 7.4403 18.747 3.8579 3.8376 11.776 5.96 18.855 7.4152 2.0013 0.41139 3.5178 0.60956 5.2602 0.89051-1.6526 0.29238-3.0664 0.49397-4.9518 0.9098-6.9151 1.525-14.671 3.7337-18.492 7.5752-3.8214 3.8415-6.0724 11.687-7.6484 18.695-0.48279 2.1468-0.74112 3.8067-1.0678 5.6399-0.32216-1.8295-0.5745-3.4852-1.0524-5.6265-1.5627-7.001-3.8046-14.839-7.6504-18.664-3.8457-3.8256-11.661-5.9884-18.634-7.4769-1.9604-0.41849-3.441-0.62303-5.1484-0.91172 1.7727-0.30403 3.3309-0.52716 5.3759-0.96954 7.0816-1.532 14.997-3.7352 18.832-7.5906 3.8351-3.8554 5.9134-11.705 7.3208-18.709 0.35442-1.7639 0.50827-3.0637 0.75944-4.6338zm-31.514 47.199a1.2337 1.2337 0 0 0-1.195 1.1199s-0.17367 1.9039-0.60717 4.0613-1.308 4.5874-1.916 5.1986c-0.60795 0.61114-3.069 1.53-5.2544 2.0027s-4.1191 0.68427-4.1191 0.68427a1.2337 1.2337 0 0 0 0.0058 2.4518s1.8949 0.20045 4.044 0.65922 4.572 1.3524 5.1927 1.9699c0.62074 0.61749 1.5418 3.0525 2.0239 5.212 0.48206 2.1596 0.70162 4.0651 0.70162 4.0651a1.2337 1.2337 0 0 0 2.4518 0.0039s0.2248-1.9078 0.71126-4.0709c0.48646-2.1632 1.4079-4.6062 2.0296-5.2313 0.62177-0.62505 3.0221-1.5271 5.1523-1.9969 2.1302-0.46981 4.0093-0.67849 4.0093-0.67849a1.2337 1.2337 0 0 0-0.01735-2.4557s-1.9298-0.18722-4.1134-0.63608-4.6438-1.3433-5.2525-1.9487c-0.60867-0.60548-1.5023-3.0458-1.9507-5.214-0.44833-2.1682-0.63416-4.0845-0.63416-4.0845a1.2337 1.2337 0 0 0-1.2625-1.1122zm0.05204 7.9125c0.43164 1.6147 0.98107 3.1803 2.0547 4.2483 1.1338 1.1279 2.8189 1.6801 4.5393 2.1145-1.6393 0.45101-3.2378 1.0174-4.3254 2.1107-1.1617 1.1678-1.7454 2.9241-2.2128 4.6993-0.46473-1.772-1.0471-3.5243-2.2167-4.6877-1.1138-1.108-2.7576-1.6678-4.4372-2.1107 1.7365-0.45309 3.4409-1.0236 4.5779-2.1665 1.0588-1.0644 1.5989-2.6102 2.0201-4.2078z" color="#000000" color-rendering="auto" dominant-baseline="auto" image-rendering="auto" shape-rendering="auto" solid-color="#000000" stroke-width=".98689" style="font-feature-settings:normal;font-variant-alternates:normal;font-variant-caps:normal;font-variant-ligatures:normal;font-variant-numeric:normal;font-variant-position:normal;isolation:auto;mix-blend-mode:normal;shape-padding:0;text-decoration-color:#000000;text-decoration-line:none;text-decoration-style:solid;text-indent:0;text-orientation:mixed;text-transform:none;white-space:normal;"></path></svg>