<svg height='100px' width='100px'  fill="#d96b52" xmlns="http://www.w3.org/2000/svg" viewBox="0 0 62 66" x="0px" y="0px"><path fill="#d96b52" d="M677,827.395448 L662.235423,830.971893 C661.698661,831.101914 661.158128,830.772185 661.028107,830.235423 C660.898086,829.698661 661.227815,829.158128 661.764577,829.028107 L677,825.337609 L677,778 C677,777.447715 677.447715,777 678,777 L722,777 C722.552285,777 723,777.447715 723,778 L723,842 C723,842.552285 722.552285,843 722,843 L678,843 C677.447715,843 677,842.552285 677,842 L677,827.395448 Z M694.348657,823.193058 L679,826.910986 L679,841 L721,841 L721,779 L679,779 L679,824.853146 L693.87704,821.249459 L691.028201,809.509018 C690.897967,808.972308 691.227481,808.431643 691.764191,808.30141 C692.300901,808.171176 692.841566,808.50069 692.971799,809.0374 L698.971799,833.764191 C699.102033,834.300901 698.772519,834.841566 698.235809,834.971799 C697.699099,835.102033 697.158434,834.772519 697.028201,834.235809 L694.348657,823.193058 Z M692,794 C689.238576,794 687,791.761424 687,789 C687,786.238576 689.238576,784 692,784 C694.761424,784 697,786.238576 697,789 C697,791.761424 694.761424,794 692,794 Z M692,792 C693.656854,792 695,790.656854 695,789 C695,787.343146 693.656854,786 692,786 C690.343146,786 689,787.343146 689,789 C689,790.656854 690.343146,792 692,792 Z M706.919145,808.393919 C706.572813,809.202027 705.427187,809.202027 705.080855,808.393919 C704.126553,806.167215 703.186881,804.601094 702.292893,803.707107 C701.398906,802.813119 699.832785,801.873447 697.606081,800.919145 C696.797973,800.572813 696.797973,799.427187 697.606081,799.080855 C699.832785,798.126553 701.398906,797.186881 702.292893,796.292893 C703.186881,795.398906 704.126553,793.832785 705.080855,791.606081 C705.427187,790.797973 706.572813,790.797973 706.919145,791.606081 C707.873447,793.832785 708.813119,795.398906 709.707107,796.292893 C710.601094,797.186881 712.167215,798.126553 714.393919,799.080855 C715.202027,799.427187 715.202027,800.572813 714.393919,800.919145 C712.167215,801.873447 710.601094,802.813119 709.707107,803.707107 C708.813119,804.601094 707.873447,806.167215 706.919145,808.393919 Z M708.292893,802.292893 C709.076439,801.509347 710.191835,800.74873 711.643187,800 C710.191835,799.25127 709.076439,798.490653 708.292893,797.707107 C707.509347,796.923561 706.74873,795.808165 706,794.356813 C705.25127,795.808165 704.490653,796.923561 703.707107,797.707107 C702.923561,798.490653 701.808165,799.25127 700.356813,800 C701.808165,800.74873 702.923561,801.509347 703.707107,802.292893 C704.490653,803.076439 705.25127,804.191835 706,805.643187 C706.74873,804.191835 707.509347,803.076439 708.292893,802.292893 Z M710,825 C707.238576,825 705,822.761424 705,820 C705,817.238576 707.238576,815 710,815 C712.761424,815 715,817.238576 715,820 C715,822.761424 712.761424,825 710,825 Z M710,823 C711.656854,823 713,821.656854 713,820 C713,818.343146 711.656854,817 710,817 C708.343146,817 707,818.343146 707,820 C707,821.656854 708.343146,823 710,823 Z" transform="translate(-661 -777)"></path></svg>